<svg width="163" height="185" viewBox="0 0 163 185" fill="none" xmlns="http://www.w3.org/2000/svg">
<path d="M109.393 131.104C109.393 134.176 108.625 136.992 107.089 139.552C105.553 142.112 103.505 144.16 100.945 145.696C98.3845 147.232 95.5685 148 92.4965 148H69.4565C66.3845 148 63.5258 147.232 60.8805 145.696C58.3205 144.16 56.2725 142.112 54.7365 139.552C53.2005 136.992 52.4325 134.176 52.4325 131.104V78.496C52.4325 75.3387 53.2005 72.48 54.7365 69.92C56.2725 67.36 58.3205 65.312 60.8805 63.776C63.5258 62.24 66.3845 61.472 69.4565 61.472H92.4965C95.5685 61.472 98.3845 62.24 100.945 63.776C103.505 65.312 105.553 67.36 107.089 69.92C108.625 72.48 109.393 75.3387 109.393 78.496V81.952C109.393 83.5733 108.838 84.9387 107.729 86.048C106.619 87.1573 105.211 87.712 103.505 87.712H100.049C98.4272 87.712 97.0192 87.1573 95.8245 86.048C94.7152 84.9387 94.1605 83.5733 94.1605 81.952V78.496C94.1605 77.3013 93.6058 76.704 92.4965 76.704H69.4565C68.3472 76.704 67.7925 77.3013 67.7925 78.496V131.104C67.7925 131.531 67.9632 131.957 68.3045 132.384C68.6458 132.725 69.0298 132.896 69.4565 132.896H92.4965C92.9232 132.896 93.3072 132.725 93.6485 132.384C93.9898 131.957 94.1605 131.531 94.1605 131.104V127.264C94.1605 125.643 94.7152 124.277 95.8245 123.168C97.0192 121.973 98.4272 121.376 100.049 121.376H103.505C105.211 121.376 106.619 121.973 107.729 123.168C108.838 124.277 109.393 125.643 109.393 127.264V131.104Z" fill="#0026FF"/>
</svg>
